<svg xmlns="http://www.w3.org/2000/svg" width="92.571" height="80" viewBox="0 0 92.571 80">
  <g id="nodata" transform="translate(-1054 -348)">
    <g id="다각형_2" data-name="다각형 2" transform="translate(1054 348)" fill="#fff" stroke-linejoin="round">
      <path d="M 82.16813659667969 78.5 L 10.40329647064209 78.5 C 8.775609016418457 78.5 7.318359375 77.65821075439453 6.505159378051758 76.24821472167969 C 5.691959381103516 74.83821105957031 5.693109512329102 73.15531158447266 6.508246898651123 71.74643707275391 L 42.39065933227539 9.727448463439941 C 43.20450973510742 8.320798873901367 44.66059875488281 7.481011390686035 46.28570938110352 7.481011390686035 C 47.91082000732422 7.481011390686035 49.36690902709961 8.320798873901367 50.18075942993164 9.727448463439941 L 86.06318664550781 71.74643707275391 C 86.87831878662109 73.15531158447266 86.87947082519531 74.83822631835938 86.06626892089844 76.24822235107422 C 85.25307464599609 77.65821075439453 83.79582214355469 78.5 82.16813659667969 78.5 Z" stroke="none"/>
      <path d="M 46.28570938110352 8.981010437011719 C 45.76548004150391 8.981010437011719 44.47105407714844 9.126937866210938 43.68901062011719 10.47863006591797 L 7.806594848632812 72.49761199951172 C 7.023307800292969 73.85145568847656 7.544212341308594 75.04743957519531 7.804534912109375 75.49879455566406 C 8.064849853515625 75.95017242431641 8.839195251464844 77 10.40329742431641 77 L 82.16810607910156 77 C 83.73222351074219 77 84.50656890869141 75.95017242431641 84.76689147949219 75.49879455566406 C 85.02720642089844 75.04743957519531 85.54812622070312 73.85145568847656 84.76483917236328 72.49761199951172 L 48.88240814208984 10.47864532470703 C 48.1003532409668 9.126937866210938 46.80593872070312 8.981010437011719 46.28570938110352 8.981010437011719 M 46.28570938110352 5.981010437011719 C 48.30475616455078 5.981010437011719 50.32380294799805 6.979423522949219 51.47911071777344 8.97625732421875 L 87.36154174804688 70.9952392578125 C 89.67581176757812 74.9952392578125 86.78936767578125 79.99998474121094 82.16812133789062 80 L 10.40329742431641 80 C 5.782051086425781 79.99998474121094 2.895606994628906 74.9952392578125 5.209892272949219 70.9952392578125 L 41.09230804443359 8.97625732421875 C 42.24761581420898 6.979423522949219 44.26666259765625 5.981010437011719 46.28570938110352 5.981010437011719 Z" stroke="none" fill="#557cf2"/>
    </g>
    <path id="패스_64" data-name="패스 64" d="M.359,9.364H5.265L6.374-5.35l.256-6.922H-1.006L-.75-5.35ZM2.791,21.728A4.574,4.574,0,0,0,7.312,16.9a4.536,4.536,0,0,0-4.521-4.789A4.528,4.528,0,0,0-1.688,16.9,4.566,4.566,0,0,0,2.791,21.728Z" transform="translate(1097.688 392.272)" fill="#557cf2"/>
  </g>
</svg>
