<svg width="16" height="18" viewBox="0 0 16 18" fill="none" xmlns="http://www.w3.org/2000/svg">
<path fill-rule="evenodd" clip-rule="evenodd" d="M0.674737 9.07061C1.02621 8.71914 1.59606 8.71914 1.94753 9.07061L7.99985 15.1229L14.0522 9.07061C14.4036 8.71914 14.9735 8.71914 15.325 9.07061C15.6764 9.42208 15.6764 9.99193 15.325 10.3434L7.99985 17.6685L0.674737 10.3434C0.323265 9.99193 0.323265 9.42208 0.674737 9.07061Z" fill="white"/>
<path fill-rule="evenodd" clip-rule="evenodd" d="M8.02109 0.628662C8.51815 0.628662 8.92109 1.03161 8.92109 1.52866V15.7568C8.92109 16.2538 8.51815 16.6568 8.02109 16.6568C7.52404 16.6568 7.12109 16.2538 7.12109 15.7568V1.52866C7.12109 1.03161 7.52404 0.628662 8.02109 0.628662Z" fill="white"/>
</svg>
