<svg width="20" height="21" viewBox="0 0 20 21" fill="none" xmlns="http://www.w3.org/2000/svg">
<path fill-rule="evenodd" clip-rule="evenodd" d="M4.58398 15.7174C4.58398 15.4413 4.80784 15.2174 5.08398 15.2174H14.916C15.1921 15.2174 15.416 15.4413 15.416 15.7174C15.416 15.9935 15.1921 16.2174 14.916 16.2174H5.08398C4.80784 16.2174 4.58398 15.9935 4.58398 15.7174Z" fill="white"/>
<path fill-rule="evenodd" clip-rule="evenodd" d="M5.93038 8.77242C6.12564 8.57716 6.44223 8.57716 6.63749 8.77242L9.99989 12.1348L13.3623 8.77242C13.5575 8.57716 13.8741 8.57716 14.0694 8.77242C14.2647 8.96769 14.2647 9.28427 14.0694 9.47953L9.99989 13.549L5.93038 9.47953C5.73512 9.28427 5.73512 8.96769 5.93038 8.77242Z" fill="white"/>
<path fill-rule="evenodd" clip-rule="evenodd" d="M10.0117 4.08252C10.2879 4.08252 10.5117 4.30638 10.5117 4.58252V12.487C10.5117 12.7632 10.2879 12.987 10.0117 12.987C9.73558 12.987 9.51172 12.7632 9.51172 12.487V4.58252C9.51172 4.30638 9.73558 4.08252 10.0117 4.08252Z" fill="white"/>
</svg>
