<svg id="face" xmlns="http://www.w3.org/2000/svg" xmlns:xlink="http://www.w3.org/1999/xlink" width="32" height="32" viewBox="0 0 32 32">
  <defs>
    <clipPath id="clip-path">
      <rect id="사각형_91" data-name="사각형 91" width="7.619" height="13.714"/>
    </clipPath>
  </defs>
  <g id="타원_3" data-name="타원 3" fill="#fff" stroke="#ddd" stroke-width="1">
    <circle cx="16" cy="16" r="16" stroke="none"/>
    <circle cx="16" cy="16" r="15.5" fill="none"/>
  </g>
  <g id="그룹_98" data-name="그룹 98" transform="translate(7.619 9.143)">
    <g id="그룹_96" data-name="그룹 96" transform="translate(0)">
      <g id="그룹_94" data-name="그룹 94" clip-path="url(#clip-path)">
        <path id="패스_63" data-name="패스 63" d="M7.262,13.331a1.375,1.375,0,0,0,0-1.85L2.946,6.857,7.262,2.232a1.374,1.374,0,0,0,0-1.849,1.163,1.163,0,0,0-1.726,0L.357,5.932a1.376,1.376,0,0,0,0,1.85l5.179,5.549a1.164,1.164,0,0,0,1.726,0" transform="translate(0 0)"/>
      </g>
    </g>
    <g id="그룹_97" data-name="그룹 97" transform="translate(8.381)">
      <g id="그룹_94-2" data-name="그룹 94" clip-path="url(#clip-path)">
        <path id="패스_63-2" data-name="패스 63" d="M7.262,13.331a1.375,1.375,0,0,0,0-1.85L2.946,6.857,7.262,2.232a1.374,1.374,0,0,0,0-1.849,1.163,1.163,0,0,0-1.726,0L.357,5.932a1.376,1.376,0,0,0,0,1.85l5.179,5.549a1.164,1.164,0,0,0,1.726,0" transform="translate(0 0)"/>
      </g>
    </g>
  </g>
</svg>
