<svg id="ico_search" xmlns="http://www.w3.org/2000/svg" width="14" height="14" viewBox="0 0 14 14">
  <path id="search_FILL0_wght700_GRAD200_opsz48" d="M17.833,19.25l-4.943-4.943a4.341,4.341,0,0,1-1.264.664,4.846,4.846,0,0,1-1.559.24A4.85,4.85,0,0,1,6.5,13.763,4.806,4.806,0,0,1,5.05,10.23a4.944,4.944,0,0,1,4.98-4.98,4.944,4.944,0,0,1,4.98,4.98,4.68,4.68,0,0,1-.24,1.54,4.967,4.967,0,0,1-.7,1.319l4.98,4.943Zm-7.8-5.718a3.245,3.245,0,0,0,3.3-3.3,3.2,3.2,0,0,0-.95-2.343,3.156,3.156,0,0,0-2.333-.959,3.26,3.26,0,0,0-3.32,3.3,3.245,3.245,0,0,0,3.3,3.3Z" transform="translate(-5.05 -5.25)" fill="#666"/>
</svg>
