<svg id="ico_book" xmlns="http://www.w3.org/2000/svg" width="20" height="20" viewBox="0 0 20 20">
  <rect id="사각형_41" data-name="사각형 41" width="20" height="20" fill="#fff" opacity="0"/>
  <g id="ico_book-2" data-name="ico_book" transform="translate(0 1)">
    <path id="auto_stories_FILL0_wght400_GRAD0_opsz48" d="M12,19a8.691,8.691,0,0,0-2.364-1.362A7.348,7.348,0,0,0,7,17.154a7.021,7.021,0,0,0-1.875.254,8.155,8.155,0,0,0-1.761.715.864.864,0,0,1-.92-.023A.9.9,0,0,1,2,17.292V6.169a1,1,0,0,1,.125-.485A.789.789,0,0,1,2.5,5.338a9.4,9.4,0,0,1,2.182-.831A9.707,9.707,0,0,1,12,5.615V17.292a9.233,9.233,0,0,1,2.432-1.142A8.917,8.917,0,0,1,17,15.769a10.87,10.87,0,0,1,1.784.162,5.544,5.544,0,0,1,1.852.669V4.946q.227.092.443.185a4.278,4.278,0,0,1,.42.208,1.087,1.087,0,0,1,.364.358A.879.879,0,0,1,22,6.169V17.292a.9.9,0,0,1-.443.808.864.864,0,0,1-.92.023,8.155,8.155,0,0,0-1.761-.715A7.021,7.021,0,0,0,17,17.154a7.348,7.348,0,0,0-2.636.485A8.691,8.691,0,0,0,12,19Zm1.364-3.854V7l5.909-6V9.931ZM10.636,16.6V6.469a6.06,6.06,0,0,0-1.8-.646A9.342,9.342,0,0,0,7,5.615a8.161,8.161,0,0,0-1.989.231,7.849,7.849,0,0,0-1.648.6V16.6a8.117,8.117,0,0,1,1.716-.612,8.363,8.363,0,0,1,1.943-.219,8.128,8.128,0,0,1,3.614.831Zm0,0v0Z" transform="translate(-2 -1)" fill="#fff"/>
  </g>
</svg>
