<svg xmlns="http://www.w3.org/2000/svg" xmlns:xlink="http://www.w3.org/1999/xlink" width="14" height="16" viewBox="0 0 14 16">
  <defs>
    <clipPath id="clip-path">
      <rect id="사각형_71" data-name="사각형 71" width="14" height="16" fill="#333"/>
    </clipPath>
  </defs>
  <g id="그룹_34" data-name="그룹 34" clip-path="url(#clip-path)">
    <path id="패스_2" data-name="패스 2" d="M1.5,14.5h11V1.5H1.5Zm0,1.5a1.439,1.439,0,0,1-1.05-.45A1.439,1.439,0,0,1,0,14.5V1.5A1.439,1.439,0,0,1,.45.45,1.439,1.439,0,0,1,1.5,0h11a1.439,1.439,0,0,1,1.05.45A1.439,1.439,0,0,1,14,1.5v13A1.538,1.538,0,0,1,12.5,16ZM4.25,5.75h5.5V4.25H4.25Zm0,3h5.5V7.25H4.25Zm0,3h5.5v-1.5H4.25ZM1.5,14.5v0Z" fill="#333"/>
  </g>
</svg>
