<svg xmlns="http://www.w3.org/2000/svg" width="17" height="20" viewBox="0 0 17 20">
  <path id="restart_alt_FILL1_wght400_GRAD0_opsz48" d="M15.718,24.9a8.067,8.067,0,0,1-5.49-2.73A8.4,8.4,0,0,1,8,16.332a8.475,8.475,0,0,1,.941-3.919,8,8,0,0,1,2.639-3l1.14,1.162a6.152,6.152,0,0,0-2.307,2.446,6.977,6.977,0,0,0-.822,3.311,6.813,6.813,0,0,0,1.75,4.676,6.664,6.664,0,0,0,4.376,2.27Zm1.591,0V23.278a6.718,6.718,0,0,0,4.376-2.284,6.824,6.824,0,0,0,1.724-4.662,6.85,6.85,0,0,0-2-4.986,6.593,6.593,0,0,0-4.893-2.041h-.53l1.591,1.622-1.14,1.162L12.906,8.495,16.434,4.9l1.14,1.162L15.983,7.684h.53a8.092,8.092,0,0,1,6.02,2.527A8.442,8.442,0,0,1,25,16.332a8.433,8.433,0,0,1-2.215,5.838A8.019,8.019,0,0,1,17.309,24.9Z" transform="translate(-8 -4.9)" fill="#fff"/>
</svg>
