<svg id="ico_folder" xmlns="http://www.w3.org/2000/svg" width="20" height="16" viewBox="0 0 20 16">
  <path id="snippet_folder_FILL0_wght400_GRAD0_opsz48" d="M16.05,19.5V14h1.875l1.625,1.625V19.5ZM14.55,21h6.5V15l-2.5-2.5h-4Zm-9,3a1.421,1.421,0,0,1-1.05-.462A1.453,1.453,0,0,1,4.05,22.5V9.5A1.453,1.453,0,0,1,4.5,8.462,1.421,1.421,0,0,1,5.55,8h7l1.5,1.5h8.5a1.587,1.587,0,0,1,1.5,1.5V22.5a1.587,1.587,0,0,1-1.5,1.5Zm0-14.5v13h17V11H13.425l-1.5-1.5H5.55Zm0,0v0Z" transform="translate(-4.05 -8)" fill="#333"/>
</svg>
