<svg id="ico_sound" xmlns="http://www.w3.org/2000/svg" width="24" height="24" viewBox="0 0 24 24">
  <path id="volume_up_FILL0_wght400_GRAD0_opsz48" d="M134.667,249v-2.126A10.273,10.273,0,0,0,142,237a10.157,10.157,0,0,0-2.033-6.206,9.734,9.734,0,0,0-5.3-3.669V225a11.621,11.621,0,0,1,6.733,4.3,12.693,12.693,0,0,1,0,15.394A11.621,11.621,0,0,1,134.667,249ZM120,241.149V232.92h5.333L132,226.063v21.943l-6.667-6.857Zm14,1.646V231.24a5.392,5.392,0,0,1,2.917,2.194,6.309,6.309,0,0,1,1.083,3.6,6.187,6.187,0,0,1-1.1,3.566A5.476,5.476,0,0,1,134,242.794Zm-4-11.52-3.767,3.7H122v4.114h4.233L130,242.829ZM126.867,237.034Z" transform="translate(-120 -225)"/>
</svg>
