<svg id="ico_content_copy" xmlns="http://www.w3.org/2000/svg" width="27" height="32" viewBox="0 0 27 32">
  <path id="content_copy_FILL0_wght400_GRAD0_opsz48" d="M8.382,35.95a2.278,2.278,0,0,1-1.668-.72A2.311,2.311,0,0,1,6,33.55V9.43H8.382V33.55H27.2v2.4Zm4.765-4.8a2.277,2.277,0,0,1-1.668-.72,2.311,2.311,0,0,1-.715-1.68V6.35a2.311,2.311,0,0,1,.715-1.68,2.278,2.278,0,0,1,1.668-.72H30.618a2.277,2.277,0,0,1,1.668.72A2.311,2.311,0,0,1,33,6.35v22.4a2.311,2.311,0,0,1-.715,1.68,2.277,2.277,0,0,1-1.668.72Zm0-2.4H30.618V6.35H13.147Zm0,0v0Z" transform="translate(-6 -3.95)" fill="#fff"/>
</svg>
