<svg xmlns="http://www.w3.org/2000/svg" width="20" height="20" viewBox="0 0 20 20">
  <path id="add_circle_FILL1_wght400_GRAD0_opsz48" d="M13.325,19h1.5V14.85H19v-1.5H14.825V9h-1.5v4.35H9v1.5h4.325ZM14,24a9.676,9.676,0,0,1-3.875-.788,10.075,10.075,0,0,1-5.338-5.337,9.989,9.989,0,0,1,0-7.775,9.994,9.994,0,0,1,2.15-3.175,10.251,10.251,0,0,1,3.188-2.137,9.989,9.989,0,0,1,7.775,0A9.984,9.984,0,0,1,23.212,10.1a9.989,9.989,0,0,1,0,7.775,10.251,10.251,0,0,1-2.138,3.188,9.994,9.994,0,0,1-3.175,2.15A9.738,9.738,0,0,1,14,24Z" transform="translate(-4 -4)" fill="#557cf2"/>
</svg>
