<svg id="ico_code" xmlns="http://www.w3.org/2000/svg" width="34" height="16" viewBox="0 0 34 16">
  <path id="패스_67" data-name="패스 67" d="M11.418,26.182l-1.087-.627,1.009-1.8H9.4V22.575h2.018l-1.087-1.725,1.009-.549,1.009,1.725L13.359,20.3l1.009.549-1.009,1.8h2.018v1.176H13.359l1.009,1.8-1.009.549L12.35,24.457Zm8.306,0-1.009-.627,1.009-1.8H17.706V22.575h2.018l-1.009-1.725,1.009-.549,1.009,1.725L21.742,20.3l1.009.549-1.009,1.8h2.018v1.176H21.742l1.009,1.8-1.009.627-1.009-1.882Zm8.384,0L27.1,25.555l1.009-1.8H26.089V22.575h2.018L27.1,20.849l1.009-.549,1.009,1.725L30.126,20.3l1.009.549-1.087,1.725h2.018v1.176H30.048l1.009,1.8-1.009.627-1.009-1.725Z" transform="translate(-3.733 -15.202)" fill="#fff"/>
  <path id="패스_68" data-name="패스 68" d="M34.159,15.761V27.839H4.041V15.761H34.159M36.1,13.8H2.1v16h34v-16Z" transform="translate(-2.1 -13.8)" fill="#fff"/>
</svg>
