<svg id="ico_search" xmlns="http://www.w3.org/2000/svg" width="20" height="20" viewBox="0 0 20 20">
  <path id="search_FILL0_wght700_GRAD200_opsz48" d="M23.311,25.25l-7.062-7.062a6.2,6.2,0,0,1-1.805.949,6.923,6.923,0,0,1-2.227.343,6.929,6.929,0,0,1-5.1-2.069A6.866,6.866,0,0,1,5.05,12.365,7.063,7.063,0,0,1,12.165,5.25a7.063,7.063,0,0,1,7.115,7.115,6.685,6.685,0,0,1-.343,2.2,7.1,7.1,0,0,1-1,1.884l7.115,7.062ZM12.165,17.081a4.636,4.636,0,0,0,4.717-4.717,4.575,4.575,0,0,0-1.357-3.347,4.509,4.509,0,0,0-3.333-1.37,4.658,4.658,0,0,0-4.743,4.717,4.636,4.636,0,0,0,4.717,4.717Z" transform="translate(-5.05 -5.25)" fill="#fff"/>
</svg>
