<svg id="ioc_lock" xmlns="http://www.w3.org/2000/svg" width="28" height="28" viewBox="0 0 28 28">
  <rect id="사각형_10" data-name="사각형 10" width="28" height="28" fill="#557cf2" opacity="0"/>
  <path id="lock_FILL0_wght400_GRAD0_opsz48" d="M10,30a1.992,1.992,0,0,1-2-2V13.533a1.992,1.992,0,0,1,2-2h2.333v-3.2a6.106,6.106,0,0,1,1.85-4.483A6.106,6.106,0,0,1,18.667,2,6.106,6.106,0,0,1,23.15,3.85,6.106,6.106,0,0,1,25,8.333v3.2h2.333a1.992,1.992,0,0,1,2,2V28a1.992,1.992,0,0,1-2,2Zm0-2H27.333V13.533H10Zm8.667-4.667a2.5,2.5,0,0,0,1.817-.733,2.382,2.382,0,0,0,.75-1.767,2.624,2.624,0,0,0-.75-1.817,2.429,2.429,0,0,0-3.633,0,2.624,2.624,0,0,0-.75,1.817,2.382,2.382,0,0,0,.75,1.767A2.5,2.5,0,0,0,18.667,23.333Zm-4.333-11.8H23v-3.2a4.177,4.177,0,0,0-1.267-3.067,4.346,4.346,0,0,0-6.133,0,4.177,4.177,0,0,0-1.267,3.067ZM10,28v0Z" transform="translate(-4.667 -2)" fill="#557cf2"/>
</svg>
