<svg id="ico_ugc" xmlns="http://www.w3.org/2000/svg" width="22" height="22" viewBox="0 0 22 22">
  <rect id="사각형_23" data-name="사각형 23" width="22" height="22" opacity="0"/>
  <path id="maps_ugc_FILL1_wght400_GRAD0_opsz48" d="M23,25l-1.8-6.375a9.688,9.688,0,0,0,.725-2.212,12.018,12.018,0,0,0,.225-2.337,9.8,9.8,0,0,0-.788-3.925A10.166,10.166,0,0,0,16,4.787,9.8,9.8,0,0,0,12.075,4a9.8,9.8,0,0,0-3.925.787A10.166,10.166,0,0,0,2.788,10.15,9.8,9.8,0,0,0,2,14.075,9.8,9.8,0,0,0,2.788,18,10.166,10.166,0,0,0,8.15,23.363a9.8,9.8,0,0,0,3.925.788,12.018,12.018,0,0,0,2.337-.225,9.687,9.687,0,0,0,2.212-.725ZM12.825,18.1h-1.5V14.925h-3.2v-1.5h3.2v-3.2h1.5v3.2h3.2v1.5h-3.2Z" transform="translate(-1.5 -3.5)"/>
</svg>
