<svg id="ico_account" xmlns="http://www.w3.org/2000/svg" width="28" height="28" viewBox="0 0 28 28">
  <rect id="사각형_11" data-name="사각형 11" width="28" height="28" fill="#fff" opacity="0"/>
  <path id="account_circle_FILL0_wght400_GRAD0_opsz48" d="M8.733,24.833a19.2,19.2,0,0,1,4.167-2.25,12.4,12.4,0,0,1,4.433-.783,12.539,12.539,0,0,1,4.45.783,19.045,19.045,0,0,1,4.183,2.25A11.7,11.7,0,0,0,28.05,21.2a12.047,12.047,0,0,0,.617-3.867A11.1,11.1,0,0,0,17.333,6,11.1,11.1,0,0,0,6,17.333,11.758,11.758,0,0,0,6.633,21.2,12,12,0,0,0,8.733,24.833Zm8.6-6.5a4.5,4.5,0,0,1-4.567-4.567A4.5,4.5,0,0,1,17.333,9.2,4.5,4.5,0,0,1,21.9,13.767a4.5,4.5,0,0,1-4.567,4.567Zm0,12.333a12.9,12.9,0,0,1-5.167-1.05A13.433,13.433,0,0,1,5.05,22.5a13.278,13.278,0,0,1,0-10.35,13.479,13.479,0,0,1,7.117-7.1,13.278,13.278,0,0,1,10.35,0,13.524,13.524,0,0,1,7.1,7.1,13.278,13.278,0,0,1,0,10.35,13.479,13.479,0,0,1-7.1,7.117A12.865,12.865,0,0,1,17.333,30.667Zm0-2a12.225,12.225,0,0,0,3.583-.533,10.648,10.648,0,0,0,3.45-1.867A14.508,14.508,0,0,0,20.9,24.433a10.36,10.36,0,0,0-7.133,0A14.508,14.508,0,0,0,10.3,26.267a10.648,10.648,0,0,0,3.45,1.867A12.225,12.225,0,0,0,17.333,28.667Zm0-12.333A2.456,2.456,0,0,0,19.9,13.767a2.568,2.568,0,1,0-5.133,0,2.456,2.456,0,0,0,2.567,2.567ZM17.333,13.767ZM17.333,26.233Z" transform="translate(-3.333 -3.333)" fill="#557cf2"/>
</svg>
