<svg id="ico_dataset" xmlns="http://www.w3.org/2000/svg" width="16" height="16" viewBox="0 0 16 16">
  <path id="dataset_FILL0_wght400_GRAD0_opsz48" d="M9.778,18.222h3.111V15.111H9.778Zm5.333,0h3.111V15.111H15.111ZM9.778,12.889h3.111V9.778H9.778Zm5.333,0h3.111V9.778H15.111ZM7.333,22A1.367,1.367,0,0,1,6,20.667V7.333A1.367,1.367,0,0,1,7.333,6H20.667A1.367,1.367,0,0,1,22,7.333V20.667A1.367,1.367,0,0,1,20.667,22Zm0-1.333H20.667V7.333H7.333Zm0-13.333v0Z" transform="translate(-6 -6)" fill="#333"/>
</svg>
