<svg id="ico_calendar" xmlns="http://www.w3.org/2000/svg" width="20" height="22" viewBox="0 0 20 22">
  <path id="calendar_month_FILL0_wght400_GRAD0_opsz48" d="M7.667,26A1.607,1.607,0,0,1,6.5,25.5,1.575,1.575,0,0,1,6,24.35V7.3a1.575,1.575,0,0,1,.5-1.155A1.607,1.607,0,0,1,7.667,5.65H9.472V4h1.806V5.65h9.444V4h1.806V5.65h1.806a1.607,1.607,0,0,1,1.167.495A1.575,1.575,0,0,1,26,7.3V24.35a1.575,1.575,0,0,1-.5,1.155,1.607,1.607,0,0,1-1.167.5Zm0-1.65H24.333V12.525H7.667Zm0-13.475H24.333V7.3H7.667Zm0,0v0ZM16,17.2a1.081,1.081,0,0,1-.792-.316,1.121,1.121,0,0,1,0-1.568,1.149,1.149,0,0,1,1.583,0,1.121,1.121,0,0,1,0,1.568A1.081,1.081,0,0,1,16,17.2Zm-4.444,0a1.081,1.081,0,0,1-.792-.316,1.121,1.121,0,0,1,0-1.568,1.149,1.149,0,0,1,1.583,0,1.121,1.121,0,0,1,0,1.568A1.081,1.081,0,0,1,11.556,17.2Zm8.889,0a1.081,1.081,0,0,1-.792-.316,1.121,1.121,0,0,1,0-1.568,1.149,1.149,0,0,1,1.583,0,1.121,1.121,0,0,1,0,1.568A1.081,1.081,0,0,1,20.444,17.2ZM16,21.6a1.081,1.081,0,0,1-.792-.316,1.121,1.121,0,0,1,0-1.567,1.149,1.149,0,0,1,1.583,0,1.121,1.121,0,0,1,0,1.567A1.081,1.081,0,0,1,16,21.6Zm-4.444,0a1.081,1.081,0,0,1-.792-.316,1.121,1.121,0,0,1,0-1.567,1.149,1.149,0,0,1,1.583,0,1.121,1.121,0,0,1,0,1.567A1.081,1.081,0,0,1,11.556,21.6Zm8.889,0a1.081,1.081,0,0,1-.792-.316,1.121,1.121,0,0,1,0-1.567,1.149,1.149,0,0,1,1.583,0,1.121,1.121,0,0,1,0,1.567A1.081,1.081,0,0,1,20.444,21.6Z" transform="translate(-6 -4)" fill="#557cf2"/>
</svg>
