<svg id="그룹_21" data-name="그룹 21" xmlns="http://www.w3.org/2000/svg" xmlns:xlink="http://www.w3.org/1999/xlink" width="20" height="20" viewBox="0 0 20 20">
  <defs>
    <clipPath id="clip-path">
      <rect id="사각형_36" data-name="사각형 36" width="20" height="20" fill="#ef2b2a"/>
    </clipPath>
  </defs>
  <g id="그룹_16" data-name="그룹 16" clip-path="url(#clip-path)">
    <path id="패스_1" data-name="패스 1" d="M12.344,10l7.268-7.267a1.327,1.327,0,0,0,0-1.876L19.142.388a1.326,1.326,0,0,0-1.875,0L10,7.656,2.732.388a1.326,1.326,0,0,0-1.875,0L.388.857a1.327,1.327,0,0,0,0,1.876L7.655,10,.388,17.267a1.326,1.326,0,0,0,0,1.875l.469.469a1.326,1.326,0,0,0,1.875,0L10,12.344l7.267,7.268a1.326,1.326,0,0,0,1.875,0l.469-.469a1.327,1.327,0,0,0,0-1.875Z" transform="translate(0 0)" fill="#ef2b2a"/>
  </g>
</svg>
