<svg id="ico_account" xmlns="http://www.w3.org/2000/svg" width="20" height="20" viewBox="0 0 20 20">
  <rect id="사각형_11" data-name="사각형 11" width="20" height="20" fill="#fff" opacity="0"/>
  <path id="account_circle_FILL0_wght400_GRAD0_opsz48" d="M7.381,18.881a13.713,13.713,0,0,1,2.976-1.607,8.86,8.86,0,0,1,3.167-.56,8.957,8.957,0,0,1,3.179.56,13.6,13.6,0,0,1,2.988,1.607,8.358,8.358,0,0,0,1.488-2.6,8.605,8.605,0,0,0,.44-2.762,7.932,7.932,0,0,0-8.1-8.1,7.932,7.932,0,0,0-8.1,8.1,8.4,8.4,0,0,0,.452,2.762A8.569,8.569,0,0,0,7.381,18.881Zm6.143-4.643a3.212,3.212,0,0,1-3.262-3.262,3.212,3.212,0,0,1,3.262-3.262,3.212,3.212,0,0,1,3.262,3.262,3.212,3.212,0,0,1-3.262,3.262Zm0,8.81a9.215,9.215,0,0,1-3.69-.75A9.6,9.6,0,0,1,4.75,17.214a9.484,9.484,0,0,1,0-7.393A9.628,9.628,0,0,1,9.833,4.75a9.484,9.484,0,0,1,7.393,0A9.66,9.66,0,0,1,22.3,9.821a9.484,9.484,0,0,1,0,7.393A9.628,9.628,0,0,1,17.226,22.3,9.189,9.189,0,0,1,13.524,23.048Zm0-1.429a8.732,8.732,0,0,0,2.56-.381A7.606,7.606,0,0,0,18.548,19.9a10.363,10.363,0,0,0-2.476-1.31,7.4,7.4,0,0,0-5.1,0A10.363,10.363,0,0,0,8.5,19.9a7.606,7.606,0,0,0,2.464,1.333A8.732,8.732,0,0,0,13.524,21.619Zm0-8.81a1.754,1.754,0,0,0,1.833-1.833,1.834,1.834,0,1,0-3.667,0,1.754,1.754,0,0,0,1.833,1.833ZM13.524,10.976ZM13.524,19.881Z" transform="translate(-3.524 -3.524)" fill="#fff"/>
</svg>
