<svg xmlns="http://www.w3.org/2000/svg" width="48" height="48" viewBox="0 0 48 48">
  <g id="그룹_111" data-name="그룹 111" transform="translate(-30 -55)">
    <rect id="사각형_12" data-name="사각형 12" width="48" height="48" transform="translate(30 55)" fill="none"/>
    <g id="ico_search" transform="translate(42 67)">
      <path id="search_FILL0_wght700_GRAD200_opsz48" d="M26.963,29.25l-8.474-8.474a7.441,7.441,0,0,1-2.166,1.138,8.308,8.308,0,0,1-2.672.411,8.314,8.314,0,0,1-6.119-2.482A8.239,8.239,0,0,1,5.05,13.788,8.239,8.239,0,0,1,7.532,7.732,8.239,8.239,0,0,1,13.588,5.25a8.239,8.239,0,0,1,6.055,2.482,8.239,8.239,0,0,1,2.482,6.055,8.022,8.022,0,0,1-.411,2.64,8.516,8.516,0,0,1-1.2,2.261l8.538,8.474Zm-13.375-9.8a5.563,5.563,0,0,0,5.66-5.66,5.49,5.49,0,0,0-1.628-4.016,5.411,5.411,0,0,0-4-1.644,5.589,5.589,0,0,0-5.692,5.66,5.563,5.563,0,0,0,5.66,5.66Z" transform="translate(-5.05 -5.25)" fill="#f5f5f5"/>
    </g>
  </g>
</svg>
